<svg viewBox="-6 -6 32 32" xmlns="http://www.w3.org/2000/svg">
    <path fill="#CC3300" fill-rule="evenodd" d="M9.04,0.75 C9.57,-0.25 10.43,-0.25 10.96,0.75 L19.77,17.20 C20.30,18.20 19.88,19 18.84,19 L1.17,19 C0.12,19 -0.30,18.20 0.23,17.20 L9.04,0.75 Z M10,2.26 L1.96,17.35 L18.04,17.35 L10,2.26 Z M10,5.94 C10.53,5.94 10.96,6.37 10.96,6.91 L10.96,11.69 C10.96,12.23 10.53,12.67 10,12.67 C9.47,12.67 9.038,12.23 9.038,11.69 L9.04,6.91 C9.04,6.37 9.47,5.94 10,5.94 Z M10,13.46 C10.64,13.46 11.15,13.98 11.15,14.63 L11.15,14.66 C11.15,15.31 10.64,15.83 10,15.83 C9.36,15.83 8.85,15.31 8.85,14.66 L8.85,14.63 C8.85,13.98 9.36,13.46 10,13.46 Z"/>
</svg>