<svg viewBox="-6 -6 20 20" width="20" height="20" xmlns="http://www.w3.org/2000/svg">
   <path fill="#cc3300" fill-rule="evenodd" d="m 3.0398136,-5.2105263 c 0.530033,-1.0526316 1.3900866,-1.0526316 1.9201196,0 L 13.770482,12.105263 C 14.300515,13.157895 13.880489,14 12.840424,14 H -4.830677 c -1.0500655,0 -1.4700916,-0.842105 -0.9400586,-1.894737 z M 3.9998734,-3.6210526 -4.0406278,12.263158 H 12.040374 Z m 0,3.87368418 c 0.530033,0 0.9600598,0.45263158 0.9600598,1.02105262 v 5.031579 c 0,0.568421 -0.4300268,1.0315789 -0.9600598,1.0315789 -0.530033,0 -0.96206,-0.4631579 -0.96206,-1.0315789 l 0.002,-5.031579 c 0,-0.56842104 0.4300268,-1.02105262 0.96006,-1.02105262 z m 0,7.91578952 c 0.6400399,0 1.1500717,0.5473684 1.1500717,1.2315789 v 0.031579 c 0,0.684211 -0.5100318,1.231579 -1.1500717,1.231579 -0.6400399,0 -1.1500717,-0.547368 -1.1500717,-1.231579 V 9.4 c 0,-0.6842105 0.5100318,-1.2315789 1.1500717,-1.2315789 z" style="stroke-width:1.02601" />
</svg>
