<?xml version="1.0" encoding="UTF-8" standalone="no"?>
<svg
   width="95"
   height="86"
   viewBox="-10 -10 95 86"
   version="1.1"
   id="svg1"
   sodipodi:docname="ExecuteCommandIcon.svg"
   inkscape:version="1.4.2 (f4327f4, 2025-05-13)"
   xmlns:inkscape="http://www.inkscape.org/namespaces/inkscape"
   xmlns:sodipodi="http://sodipodi.sourceforge.net/DTD/sodipodi-0.dtd"
   xmlns="http://www.w3.org/2000/svg"
   xmlns:svg="http://www.w3.org/2000/svg">
  <defs
     id="defs1" />
  <sodipodi:namedview
     id="namedview1"
     pagecolor="#ffffff"
     bordercolor="#000000"
     borderopacity="0.25"
     inkscape:showpageshadow="2"
     inkscape:pageopacity="0.0"
     inkscape:pagecheckerboard="0"
     inkscape:deskcolor="#d1d1d1"
     inkscape:zoom="8.07"
     inkscape:cx="47.026022"
     inkscape:cy="47.39777"
     inkscape:window-width="2560"
     inkscape:window-height="1369"
     inkscape:window-x="-8"
     inkscape:window-y="-8"
     inkscape:window-maximized="1"
     inkscape:current-layer="svg1" />
  <path
     d="M 78.349999,69.311111 V 6.2444448 H -3.3500001 V 69.311111 H 78.349999 M 75.5,-10 c 5.224999,0 9.5,4.2999999 9.5,9.55555545 V 66.444444 C 85,71.7 80.724999,76 75.5,76 H -0.5000001 C -5.7250001,76 -10,71.7 -10,66.444444 V -0.44444455 C -10,-5.7000001 -5.7250001,-10 -0.5000001,-10 H 75.5 M 42.25,56.888889 V 50.2 H 66 v 6.688889 H 42.25 M 28.855,37.777778 9.8074995,18.666667 H 20.399999 L 36.075,34.433333 c 1.8525,1.863334 1.8525,4.921111 0,6.784445 L 20.495,56.888889 H 9.9024995 Z"
     fill="#3d6ee0"
     id="path1"
     style="stroke-width:4.76387" />
</svg>
